<?xml version="1.0" encoding="utf-8"?>
<!-- Generator: Adobe Illustrator 24.1.0, SVG Export Plug-In . SVG Version: 6.00 Build 0)  -->
<svg version="1.1"
	 id="svg2842" xmlns:cc="http://creativecommons.org/ns#" xmlns:dc="http://purl.org/dc/elements/1.1/" xmlns:inkscape="http://www.inkscape.org/namespaces/inkscape" xmlns:rdf="http://www.w3.org/1999/02/22-rdf-syntax-ns#" xmlns:sodipodi="http://sodipodi.sourceforge.net/DTD/sodipodi-0.dtd" xmlns:svg="http://www.w3.org/2000/svg"
	 xmlns="http://www.w3.org/2000/svg" xmlns:xlink="http://www.w3.org/1999/xlink" x="0px" y="0px" viewBox="0 0 219.6 188.5"
	 style="enable-background:new 0 0 219.6 188.5;" xml:space="preserve">
<style type="text/css">
	.st0{fill:#AD2A2A;}
</style>
<defs>
	
		<inkscape:perspective  id="perspective2850" inkscape:persp3d-origin="0.5 : 0.33333333 : 1" inkscape:vp_x="0 : 0.5 : 1" inkscape:vp_y="0 : 1000 : 0" inkscape:vp_z="1 : 0.5 : 1" sodipodi:type="inkscape:persp3d">
		</inkscape:perspective>
</defs>
<sodipodi:namedview  bordercolor="#666666" borderopacity="1" gridtolerance="10" guidetolerance="10" id="namedview2844" inkscape:current-layer="svg2842" inkscape:cx="148" inkscape:cy="160.17596" inkscape:pageopacity="0" inkscape:pageshadow="2" inkscape:window-height="480" inkscape:window-maximized="0" inkscape:window-width="640" inkscape:window-x="535" inkscape:window-y="165" inkscape:zoom="0.74702381" objecttolerance="10" pagecolor="#ffffff" showgrid="false">
	</sodipodi:namedview>
<path id="path3148" sodipodi:nodetypes="csscccssssssssssssssssssssssssssssssssssssssssc" class="st0" d="M194.3,188.5
	c-0.8-0.2-1.8-1.4-2.1-2.6s-3.5-4.6-7.2-7.7c-7.7-6.4-38.1-36.6-61.8-61.4l-16.4-17.1l-4.9,1.8c-12.7,4.7-49.3,21.3-49.6,22.4
	c-0.2,0.7-0.7,1-1.1,0.5c-0.4-0.4-3.2,0.6-6.3,2.2c-8.7,4.7-21.6,11.3-27.2,14c-2.8,1.4-6.3,3.6-7.7,5c-3.5,3.3-8.9,2.9-9.9-0.7
	c-0.8-2.9,2.2-8.3,4.4-7.8c0.7,0.2,1.4-0.2,1.6-0.9c0.2-0.7,0.9-1.1,1.7-0.9c0.8,0.2,6.9-2.4,13.6-5.7c6.7-3.3,13.6-6.7,15.2-7.5
	c1.7-0.8,7.7-3.8,13.3-6.6c5.7-2.8,12.7-5.9,15.5-6.7c2.9-0.9,5.7-2,6.4-2.6c1-1,14.6-6.6,19.4-8c1.2-0.3,3.6-1.6,5.5-2.7
	c3.4-2.1,3.4-2.1-0.2-7.1c-2-2.7-10.6-11.9-19-20.2C39.9,30.7,18,8.4,16.8,6c-1.6-2.9-0.8-5.4,1.9-6c1.4-0.3,8.1,6.2,28.8,27.8
	c16.3,17,27.3,27.9,27.8,27.4c0.5-0.5,1-0.2,1.2,0.5c0.2,1.1,26.9,30.1,30.7,33.4c1,0.8,7.2-1.4,11.6-4.1c1.1-0.7,4.1-2,6.7-3
	c2.6-1,11-5,18.8-8.9c7.8-3.9,15.3-7.6,16.8-8c2.7-0.8,17.7-7.7,24.6-11.2c2-1,9.1-4.3,15.9-7.3c12.7-5.7,14.3-5.7,17.3-0.4
	c1.4,2.4,1.1,3.1-2.2,5.5c-6.1,4.5-15.4,8.4-16.7,7.1c-0.7-0.7-4.2,0-7.9,1.6c-15.1,6.4-39.8,18.4-41.6,20c-1,1-2.4,1.5-3,1.3
	c-1.3-0.6-32,14.3-32.4,15.8c-0.2,0.6,14.2,16,31.9,34.2c30.1,31.1,32.6,33.4,39.6,37.1c9.2,4.8,11.9,8.9,10.2,15.5
	C196.2,187.2,195.2,188.8,194.3,188.5L194.3,188.5z"/>
</svg>
